<svg xmlns="http://www.w3.org/2000/svg" xmlns:xlink="http://www.w3.org/1999/xlink" width="1291.422" height="231.25" viewBox="0 0 1291.422 231.25"><defs><style>.a,.g{fill:#fff;}.b{fill:url(#a);}.c{fill:url(#b);}.d,.e{fill:#3cb4e5;}.e{fill-rule:evenodd;}.f{fill:url(#c);}.g{font-size:24px;font-family:SourceSansPro-Regular, Source Sans Pro;letter-spacing:0.05em;isolation:isolate;}</style><linearGradient id="a" y1="0.5" x2="1.007" y2="0.5" gradientUnits="objectBoundingBox"><stop offset="0" stop-color="#fff" stop-opacity="0"/><stop offset="1" stop-color="#fff"/></linearGradient><linearGradient id="b" x1="-5.471" y1="0.5" x2="0.611" y2="0.5" xlink:href="#a"/><linearGradient id="c" y1="0.5" x2="1" y2="0.5" gradientUnits="objectBoundingBox"><stop offset="0" stop-color="#fff"/><stop offset="1" stop-color="#fff" stop-opacity="0"/></linearGradient></defs><g transform="translate(-314.289 -2177.032)"><g transform="translate(405.765 2177.032)"><path class="a" d="M772.013,678.884a93.017,93.017,0,1,1,57.448-166.178l-.95,1.208a91.643,91.643,0,1,0,8.185,7.272l1.087-1.087a93.015,93.015,0,0,1-65.77,158.785Z" transform="translate(-679 -492.841)"/><g transform="translate(143.191 13.307)"><path class="a" d="M772.138,514.338l16.7,3.243L783.3,501.5Z" transform="translate(-772.138 -501.497)"/></g></g><g transform="translate(1328.254 2177.032)"><path class="a" d="M1372,678.839a93,93,0,1,1,57.448-166.134l-.952,1.208a91.544,91.544,0,1,0,8.187,7.272l1.087-1.087A92.97,92.97,0,0,1,1372,678.839Z" transform="translate(-1279.029 -492.841)"/><g transform="translate(143.146 13.307)"><path class="a" d="M1372.138,514.338l16.7,3.243L1383.3,501.5Z" transform="translate(-1372.138 -501.497)"/></g></g><g transform="translate(590.254 2177.047)"><path class="a" d="M892.013,678.879v-1.537a91.391,91.391,0,1,0-10.929-.646l-.183,1.525a93.078,93.078,0,1,1,11.112.658Z" transform="translate(-799 -492.851)"/><g transform="translate(79.234 175.403)"><path class="a" d="M851.788,606.941l14.835,10.01L850.537,624.8Z" transform="translate(-850.537 -606.941)"/></g></g><g transform="translate(1143.72 2177.047)"><path class="a" d="M1252.013,678.879v-1.537a91.391,91.391,0,1,0-10.929-.646l-.185,1.525a93.079,93.079,0,1,1,11.114.658Z" transform="translate(-1159 -492.851)"/><g transform="translate(79.234 175.403)"><path class="a" d="M1211.788,606.941l14.835,10.01-16.085,7.844Z" transform="translate(-1210.537 -606.941)"/></g></g><g transform="translate(314.289 2270.06)"><path class="b" d="M619.5,642.545v-1.537a91.46,91.46,0,0,0,90.83-80.548l1.527.183A93,93,0,0,1,619.5,642.545Z" transform="translate(-619.5 -549.531)"/><g transform="translate(83.67)"><path class="c" d="M673.922,566.059l8.575-12.708,6.72,13.779Z" transform="translate(-673.922 -553.351)"/></g></g><g transform="translate(462.213 2231.338)"><path class="d" d="M746.917,572.823a15.781,15.781,0,0,1,8.734-8.037.831.831,0,0,0,.515-.746.814.814,0,0,0-.5-.778c-1.3-.518-2.7-1.076-4.183-1.62l-1.954-.744a2.044,2.044,0,0,1-.427-1,8.649,8.649,0,0,1,.178-4.213,18.678,18.678,0,0,0,4.563-13.969c0-7.841-4.92-13.548-11.684-13.548s-11.684,5.7-11.684,13.515a18.631,18.631,0,0,0,4.531,13.935,8.287,8.287,0,0,1,.225,4.279,2.109,2.109,0,0,1-.418,1l-1.96.744c-7.613,2.921-13.116,5.024-14.791,8.491a30.815,30.815,0,0,0-2.343,11.5,1.582,1.582,0,0,0,1.54,1.622h27.413a.725.725,0,0,0,.587-.292.748.748,0,0,0,.185-.615A16.885,16.885,0,0,1,746.917,572.823Z" transform="translate(-715.717 -528.164)"/><path class="d" d="M776.686,560.238a11.023,11.023,0,0,0-8.055-6.159,10.62,10.62,0,0,0-9.512,3.176l-.95.973a.742.742,0,0,1-1.048.049.485.485,0,0,1-.051-.049l-.933-.973a10.62,10.62,0,0,0-9.512-3.176,11.02,11.02,0,0,0-8.053,6.159A11.75,11.75,0,0,0,740.6,573.4l15.906,17.274a1.481,1.481,0,0,0,2.085.164,1.506,1.506,0,0,0,.165-.164l15.888-17.24A11.786,11.786,0,0,0,776.686,560.238Z" transform="translate(-704.06 -514.319)"/></g><g transform="translate(646.213 2231.23)"><path class="d" d="M890.362,573.745a3.212,3.212,0,0,0-3.144,3.276H846.337a1.607,1.607,0,0,1-1.573-1.637v-.819a.8.8,0,0,0-.786-.819H839.26a.8.8,0,0,0-.786.819h0v2.46a6.424,6.424,0,0,0,6.29,6.551h42.452a6.424,6.424,0,0,0,6.29-6.551,3.212,3.212,0,0,0-3.143-3.279Z" transform="translate(-833.746 -503.561)"/><path class="d" d="M845.631,544.472a.8.8,0,0,0,.786-.82h0v-7.369a1.606,1.606,0,0,1,1.573-1.639h40.88a1.607,1.607,0,0,1,1.58,1.633V541.1a3.147,3.147,0,1,0,6.29.241c0-.081,0-.161,0-.241v-6.457a6.424,6.424,0,0,0-6.29-6.551H846.416a6.424,6.424,0,0,0-6.289,6.551v2.46a.8.8,0,0,1-.786.819h-.787a3.278,3.278,0,0,0,0,6.551Z" transform="translate(-835.398 -528.094)"/><path class="d" d="M845.631,554.253a.8.8,0,0,0,.786-.819h0V541.969a.8.8,0,0,0-.786-.819h-4.717a.8.8,0,0,0-.786.819h0v4.92a.8.8,0,0,1-.786.82h-.789a3.278,3.278,0,0,0,0,6.551Z" transform="translate(-835.398 -521.078)"/><path class="d" d="M845.631,565.133a.8.8,0,0,0,.786-.819h0V552.849a.8.8,0,0,0-.786-.819h-4.717a.8.8,0,0,0-.786.819h0v4.92a.8.8,0,0,1-.786.819h-.789a3.278,3.278,0,0,0,0,6.551Z" transform="translate(-835.398 -515.231)"/><path class="d" d="M845.631,576.013a.8.8,0,0,0,.786-.819h0V563.729a.8.8,0,0,0-.786-.819h-4.717a.8.8,0,0,0-.786.819h0v5.733h-1.574a3.278,3.278,0,0,0,0,6.551Z" transform="translate(-835.398 -509.384)"/><path class="d" d="M861.732,546.349a3.62,3.62,0,0,1-1.662,2.2,3.381,3.381,0,0,1-2.664.318,2.291,2.291,0,0,0-2.321.572,2.525,2.525,0,0,0-.655,2.389,2.41,2.41,0,0,0,1.682,1.763,7.927,7.927,0,0,0,6.25-.747,8.508,8.508,0,0,0,3.911-5.132,10.163,10.163,0,0,0-6.642-12.47,11.482,11.482,0,0,0-14.166,7.935c-.028.1-.055.2-.08.3a14.486,14.486,0,0,0,9.481,17.772,2.273,2.273,0,0,0,.65.1,2.394,2.394,0,0,0,2.317-2.126,2.46,2.46,0,0,0-1.691-2.694,9.542,9.542,0,0,1-6.226-11.7,7.033,7.033,0,0,1,3.228-4.246,6.559,6.559,0,0,1,5.17-.615A5.212,5.212,0,0,1,861.732,546.349Z" transform="translate(-830.334 -524.487)"/><path class="d" d="M857.168,564.9a.771.771,0,0,0-.687-.215.794.794,0,0,0-.57.461l-3.754,8.582a1.692,1.692,0,0,0,.32,1.833,1.527,1.527,0,0,0,1.762.334l8.242-3.9a.815.815,0,0,0,.451-.6.838.838,0,0,0-.218-.727Z" transform="translate(-826.468 -508.438)"/><path class="e" d="M898.819,585.959a2.223,2.223,0,0,0-1.095.249c-6.786,3.7-11.3,3.465-14.658-.744a2.319,2.319,0,0,0-1.814-.892h-8.8a3.435,3.435,0,0,1-3-1.8,3.734,3.734,0,0,1,0-3.6,3.435,3.435,0,0,1,3-1.8h8.809a6.61,6.61,0,0,0,6.073-4.248,7.089,7.089,0,0,0-1.413-7.476l-.186-.194a.84.84,0,0,1,0-1.156l3.69-3.843a.768.768,0,0,1,1.087-.026l.026.026,6.654,6.931a2.308,2.308,0,0,0,2.306.706,2.41,2.41,0,0,0,1.7-1.773,2.523,2.523,0,0,0-.678-2.406l-7.207-7.518a.84.84,0,0,1,0-1.156l5.7-5.945a5.059,5.059,0,0,0,0-6.951l-2.208-2.308a4.584,4.584,0,0,0-6.48-.189q-.1.092-.189.189l-7.107,7.38a.758.758,0,0,1-.833.186,18.86,18.86,0,0,0-16.561,1.23,20.345,20.345,0,0,0-9.686,14.052,2.541,2.541,0,0,0,.37,1.845,2.35,2.35,0,0,0,1.516,1.027,2.113,2.113,0,0,0,.44.046,2.383,2.383,0,0,0,2.306-2,15.116,15.116,0,0,1,14.685-12.636,13.641,13.641,0,0,1,2.223.191.8.8,0,0,1,.624.557.843.843,0,0,1-.194.832l-21.156,22.034a.471.471,0,0,0,0,.655l7.965,8.31a8.231,8.231,0,0,0,7.7,5.748h7.759a12.148,12.148,0,0,0,9.274,4.222,22.312,22.312,0,0,0,10.444-3.148,2.47,2.47,0,0,0,1.208-2.75A2.356,2.356,0,0,0,898.819,585.959ZM881.281,568.1a.769.769,0,0,0-.556.24l-2.6,2.709a.845.845,0,0,0-.171.893.788.788,0,0,0,.727.506h2.577a1.89,1.89,0,0,0,1.716-1.213,2.024,2.024,0,0,0-.389-2.122l-.743-.769A.766.766,0,0,0,881.281,568.1Z" transform="translate(-824.38 -522.454)"/></g><g transform="translate(767.845 2177.276)"><g transform="translate(0)"><path class="a" d="M1012.013,679.026a93.013,93.013,0,1,1,93.013-93.013A93.119,93.119,0,0,1,1012.013,679.026Zm0-184.489a91.476,91.476,0,1,0,91.476,91.476A91.578,91.578,0,0,0,1012.013,494.537Z" transform="translate(-912.103 -493)"/><g transform="translate(0 81.98)"><path class="a" d="M929.846,559.6l-7.666-13.276L914.514,559.6Z" transform="translate(-914.514 -546.324)"/></g></g></g><g transform="translate(828.696 2231.23)"><g transform="translate(0)"><path class="e" d="M1026.16,560.123a4.806,4.806,0,0,1,4.8,4.8v3.2a4.806,4.806,0,0,1-4.8,4.8h-5.324a.8.8,0,0,0-.781.6,41.635,41.635,0,0,1-2.1,6.371.8.8,0,0,0,.163.9l3.844,3.844a4.8,4.8,0,0,1,0,6.791l0,0-4.532,4.532a4.8,4.8,0,0,1-6.794,0l-2.989-2.992a.8.8,0,0,0-1.133.02.818.818,0,0,0-.148.214,6.406,6.406,0,0,1-5.827,3.74h-2.4a.8.8,0,0,0-.8.795v2.409a4.8,4.8,0,1,1-9.609,0v-2.4a.8.8,0,0,0-.795-.8h-2.407a6.407,6.407,0,0,1-5.828-3.751.8.8,0,0,0-1.067-.381.818.818,0,0,0-.214.148l-2.992,2.992a4.8,4.8,0,0,1-6.794,0l-4.535-4.529a4.8,4.8,0,0,1,0-6.791l0,0,3.844-3.844a.8.8,0,0,0,.163-.893,42.3,42.3,0,0,1-2.1-6.368.8.8,0,0,0-.769-.6H958.9a4.807,4.807,0,0,1-4.811-4.8v-3.209a4.806,4.806,0,0,1,4.8-4.8h5.319a.8.8,0,0,0,.769-.6,42.083,42.083,0,0,1,2.108-6.377.8.8,0,0,0-.163-.893l-3.843-3.844a4.8,4.8,0,0,1,0-6.791l0,0,4.535-4.528a4.8,4.8,0,0,1,6.794,0l3.844,3.844a.792.792,0,0,0,.893.163,41.429,41.429,0,0,1,6.371-2.1.8.8,0,0,0,.6-.769V532.9a4.807,4.807,0,0,1,4.8-4.8h3.2a4.806,4.806,0,0,1,4.8,4.8v5.319a.8.8,0,0,0,.6.769,41.121,41.121,0,0,1,6.371,2.108.8.8,0,0,0,.893-.166l3.844-3.844a4.8,4.8,0,0,1,6.794,0l4.529,4.535a4.8,4.8,0,0,1,0,6.791l0,0-3.844,3.844a.8.8,0,0,0-.163.893,41.614,41.614,0,0,1,2.1,6.371.794.794,0,0,0,.769.6Zm-25.624,28.826v-6.857a1.567,1.567,0,0,1,.984-1.47,15.989,15.989,0,0,0,10.227-15.432,19.268,19.268,0,0,0-38.435,0,15.99,15.99,0,0,0,10.227,15.425,1.567,1.567,0,0,1,.984,1.476v6.857a1.6,1.6,0,0,0,1.6,1.6h12.811A1.6,1.6,0,0,0,1000.536,588.949Z" transform="translate(-954.094 -528.094)"/></g></g><g transform="translate(1019.333 2231.728)"><path class="d" d="M1104.4,570.363a.812.812,0,0,0-1.149.008.82.82,0,0,0-.217.406L1101,580.936a1.619,1.619,0,0,0,1.265,1.908,1.6,1.6,0,0,0,.32.032,1.5,1.5,0,0,0,.323-.032l10.165-2.034a.809.809,0,0,0,.411-1.365Z" transform="translate(-1065.798 -506.002)"/><path class="d" d="M1138.167,553.546a8.476,8.476,0,0,0-11.966,0l-21.022,21.023a1.618,1.618,0,0,0,0,2.286l9.7,9.7a1.618,1.618,0,0,0,2.286,0l21.022-21.023a8.479,8.479,0,0,0-.021-11.99l0,0Z" transform="translate(-1063.791 -516.242)"/><path class="d" d="M1085.456,537.4a1.617,1.617,0,0,1,1.617-1.617h33.958a1.617,1.617,0,0,1,1.617,1.617h0v11.32a1.617,1.617,0,0,1-1.617,1.617h-33.958a1.617,1.617,0,0,1-1.617-1.617h0Z" transform="translate(-1074.136 -524.461)"/><path class="d" d="M1100.407,548.131h-13.334a1.617,1.617,0,0,0-1.617,1.617v19.405a1.617,1.617,0,0,0,1.617,1.617h18.878a1.617,1.617,0,0,0,1.617-1.617,1.6,1.6,0,0,0-.062-.443l-5.544-19.405A1.618,1.618,0,0,0,1100.407,548.131Z" transform="translate(-1074.136 -517.824)"/><path class="d" d="M1106.557,570.768a1.865,1.865,0,0,0,1.313-.54l6.042-6.045a3.228,3.228,0,0,0,.947-2.286V549.751a1.617,1.617,0,0,0-1.617-1.617h-12.41a1.616,1.616,0,0,0-1.619,1.613,1.652,1.652,0,0,0,.063.45l5.5,19.23A1.843,1.843,0,0,0,1106.557,570.768Z" transform="translate(-1066.743 -517.823)"/><path class="d" d="M1112.3,586.632h-26.122a1.617,1.617,0,0,1-1.617-1.617h0V536.5a1.617,1.617,0,0,1,1.617-1.617h43.662a1.617,1.617,0,0,1,1.617,1.617h0v30.942a.809.809,0,0,0,1.384.572l4.137-4.137a3.227,3.227,0,0,0,.947-2.286V534.886a6.469,6.469,0,0,0-6.468-6.468h-46.9a6.469,6.469,0,0,0-6.47,6.466v51.748a6.469,6.469,0,0,0,6.468,6.468h25.067a1.617,1.617,0,0,0,1.585-1.293l.154-.779a6.505,6.505,0,0,1,1.537-3.05.813.813,0,0,0-.615-1.345Z" transform="translate(-1078.093 -528.418)"/></g><g transform="translate(1198.682 2232.202)"><g transform="translate(0)"><path class="e" d="M1235.375,583.343V556.31a2.408,2.408,0,0,1,2.4-2.411h9.607a2.4,2.4,0,0,1,2.4,2.408v26.972a10.385,10.385,0,0,1-3.276,7.458,5.515,5.515,0,0,1-3.893,1.607h-.029a5.817,5.817,0,0,1-4.06-1.7A10.174,10.174,0,0,1,1235.375,583.343ZM1241,558.72a.8.8,0,0,0-.8.795V569.94a.8.8,0,0,0,.795.8h3.224a.8.8,0,0,0,.8-.795V559.526a.8.8,0,0,0-.795-.8h-.009Z" transform="translate(-1172.918 -515.198)"/><path class="e" d="M1213.541,589.26a4,4,0,0,1-.074-3.954l.009-.032,7.426-14.562a.692.692,0,0,0,.091-.354V559.975a4.006,4.006,0,0,1,4-3.986h6.4a4.011,4.011,0,0,1,4.008,3.986V570.39a.693.693,0,0,0,.086.354l7.45,14.593a4,4,0,0,1-3.536,5.882H1216.98A3.984,3.984,0,0,1,1213.541,589.26Zm11.631-16.393-.993,1.962a.815.815,0,0,0,.029.8.846.846,0,0,0,.687.386h6.58a.817.817,0,0,0,.807-.826.807.807,0,0,0-.091-.364l-1.076-2.122-.035-.065a3.726,3.726,0,0,1-.483-1.9v-9.161a.822.822,0,0,0-.8-.8h-3.2a.822.822,0,0,0-.8.8v9.161a4.023,4.023,0,0,1-.581,2.089Z" transform="translate(-1184.953 -514.075)"/><path class="e" d="M1204.357,585.043a9.617,9.617,0,0,1-9.607-9.612V538.336a9.622,9.622,0,0,1,9.607-9.61h51.248a9.618,9.618,0,0,1,9.607,9.612v21.093a3.215,3.215,0,1,1-6.406,0V545.822a.8.8,0,0,0-.8-.8h-56.062a.8.8,0,0,0-.8.8h0v29.612a3.22,3.22,0,0,0,3.215,3.215h19.218a3.21,3.21,0,0,1,0,6.4Zm20.823-47.506a2.4,2.4,0,1,0-2.4,2.4,2.4,2.4,0,0,0,2.4-2.4v0Zm-10.411-2.4a2.4,2.4,0,1,1-1.7.7,2.4,2.4,0,0,1,1.7-.7Zm-5.6,2.4a2.4,2.4,0,1,0-2.4,2.4,2.4,2.4,0,0,0,2.4-2.4Z" transform="translate(-1194.75 -528.726)"/><path class="d" d="M1223.245,554.959a1.607,1.607,0,0,0-1.384-1.585l-.846-.118a4.822,4.822,0,0,1-4.063-4.079l-.121-.849a1.607,1.607,0,0,0-3.173,0l-.121.852a4.824,4.824,0,0,1-4.073,4.076l-.845.118a1.606,1.606,0,0,0,0,3.173l.848.122a4.833,4.833,0,0,1,4.076,4.07l.122.869a1.606,1.606,0,0,0,3.173,0l.122-.869a4.837,4.837,0,0,1,4.076-4.07l.846-.122A1.61,1.61,0,0,0,1223.245,554.959Z" transform="translate(-1188.025 -518.919)"/><path class="d" d="M1239.223,550.11a1.605,1.605,0,0,0-1.373-1.588L1237,548.4a4.817,4.817,0,0,1-4.073-4.07l-.115-.849a1.6,1.6,0,0,0-3.17,0l-.122.852a4.822,4.822,0,0,1-4.074,4.077l-.849.123a1.606,1.606,0,0,0,0,3.17l.845.122a4.821,4.821,0,0,1,4.079,4.079l.122.849a1.6,1.6,0,0,0,3.17,0l.115-.843a4.824,4.824,0,0,1,4.076-4.082l.852-.123A1.606,1.606,0,0,0,1239.223,550.11Z" transform="translate(-1179.435 -521.538)"/></g></g><path class="f" d="M1492.013,645.744l-12.708-8.576-.478,6.838a91.445,91.445,0,0,1-78.289-90.507H1399a92.985,92.985,0,0,0,79.719,92.045l-.486,6.92Z" transform="translate(113.698 1716.789)"/><g transform="translate(1383.211 2230.633)"><path class="d" d="M1341.717,558.738a5.535,5.535,0,0,0-5.708,5.356c0,.129,0,.258,0,.387a18.952,18.952,0,0,0,5.073,9.758.83.83,0,0,0,.627.286.839.839,0,0,0,.627-.283,18.961,18.961,0,0,0,5.073-9.761,5.535,5.535,0,0,0-5.319-5.742c-.129,0-.258-.006-.387,0Z" transform="translate(-1303.366 -511.03)"/><path class="e" d="M1348.965,572.436h-9.832l-4.774,3.038a1.659,1.659,0,0,1-2.549-1.352l-.132-4.647a6.642,6.642,0,0,1,4.256-6.391l.392-.154a.833.833,0,0,0,.512-.956l-3.321-14.981a10.269,10.269,0,0,1,3.553-8.788c.7-.561,2.028-1.538,3.356-2.486a.83.83,0,0,0,.332-.664V531.1a3.321,3.321,0,0,1,6.64-.143q0,.072,0,.143v3.963a.83.83,0,0,0,.332.664c1.318.945,2.649,1.925,3.356,2.486a10.257,10.257,0,0,1,3.51,8.779l-3.321,14.987a.828.828,0,0,0,.515.953l.378.154a6.639,6.639,0,0,1,4.26,6.391l-.137,4.647a1.659,1.659,0,0,1-2.551,1.352Zm-8.7-25.687a3.77,3.77,0,1,0,0-.008Z" transform="translate(-1305.693 -527.706)"/><path class="d" d="M1331.044,542.43a6.521,6.521,0,0,0-6.545,6.5v30.888a.81.81,0,0,1-.186.517l-9.2,11.126a3.709,3.709,0,0,0,.3,3.611,3.761,3.761,0,0,0,3.244,1.659H1387.6a3.763,3.763,0,0,0,3.244-1.659,3.709,3.709,0,0,0,.3-3.611l-9.2-11.119a.81.81,0,0,1-.186-.517V548.938a6.521,6.521,0,0,0-6.542-6.5H1370.3a3.252,3.252,0,0,0-.141,6.5c.048,0,.094,0,.141,0h4.087a.814.814,0,0,1,.818.812v28.611a.814.814,0,0,1-.816.813h-11.647a.815.815,0,0,0-.733.461,32.481,32.481,0,0,1-5.338,7.478,4.928,4.928,0,0,1-6.969.129q-.067-.065-.129-.129a32.48,32.48,0,0,1-5.338-7.478.815.815,0,0,0-.734-.461h-11.638a.814.814,0,0,1-.818-.812V549.751a.814.814,0,0,1,.816-.813h4.091a3.252,3.252,0,0,0,.141-6.5c-.048,0-.094,0-.141,0Z" transform="translate(-1314.775 -519.792)"/></g><text class="g" transform="translate(495.662 2401.053)"><tspan x="-62.112" y="0">EMPATHIZE</tspan></text><text class="g" transform="translate(681.964 2401.282)"><tspan x="-39.876" y="0">DEFINE</tspan></text><text class="g" transform="translate(865.089 2400.282)"><tspan x="-38.484" y="0">IDEATE</tspan></text><text class="g" transform="translate(1049.685 2401.282)"><tspan x="-65.016" y="0">PROTOTYPE</tspan></text><text class="g" transform="translate(1232.422 2401.282)"><tspan x="-27.156" y="0">TEST</tspan></text><text class="g" transform="translate(1418.663 2401.282)"><tspan x="-64.872" y="0">IMPLEMENT</tspan></text><g transform="translate(959.276 2177.032)"><g transform="translate(0)"><path class="a" d="M1132,678.839a93,93,0,1,1,57.448-166.134l-.952,1.208a91.543,91.543,0,1,0,8.187,7.272l1.087-1.087A92.97,92.97,0,0,1,1132,678.839Z" transform="translate(-1039.029 -492.841)"/><g transform="translate(143.146 13.307)"><path class="a" d="M1132.138,514.338l16.7,3.243L1143.3,501.5Z" transform="translate(-1132.138 -501.497)"/></g></g></g></g></svg>