<svg xmlns="http://www.w3.org/2000/svg" xmlns:xlink="http://www.w3.org/1999/xlink" width="386.711" height="526.908" viewBox="0 0 386.711 526.908"><defs><style>.a,.g,.h{fill:#fff;}.b{fill:url(#a);}.c{fill:url(#b);}.d,.e{fill:#3cb4e5;}.e{fill-rule:evenodd;}.f{fill:url(#c);}.g{font-size:16px;}.g,.h{font-family:SourceSansPro-Regular, Source Sans Pro;letter-spacing:0.05em;isolation:isolate;}.h{font-size:15px;}</style><linearGradient id="a" y1="0.5" x2="1.007" y2="0.5" gradientUnits="objectBoundingBox"><stop offset="0" stop-color="#fff" stop-opacity="0"/><stop offset="1" stop-color="#fff"/></linearGradient><linearGradient id="b" x1="-5.471" y1="0.5" x2="0.611" y2="0.5" xlink:href="#a"/><linearGradient id="c" y1="0.5" x2="1" y2="0.5" gradientUnits="objectBoundingBox"><stop offset="0" stop-color="#fff"/><stop offset="1" stop-color="#fff" stop-opacity="0"/></linearGradient></defs><g transform="translate(0 0)"><g transform="translate(63.902 0)"><path class="a" d="M743.976,622.8a64.978,64.978,0,1,1,40.131-116.086l-.664.844a64.018,64.018,0,1,0,5.718,5.08l.759-.759A64.977,64.977,0,0,1,743.976,622.8Z" transform="translate(-679 -492.841)"/><g transform="translate(100.028 9.296)"><path class="a" d="M772.138,510.467l11.666,2.265-3.87-11.236Z" transform="translate(-772.138 -501.497)"/></g></g><g transform="translate(192.889 367.021)"><path class="a" d="M1343.973,622.773A64.965,64.965,0,1,1,1384.1,506.718l-.665.844a63.949,63.949,0,1,0,5.719,5.08l.759-.759a64.946,64.946,0,0,1-45.945,110.89Z" transform="translate(-1279.029 -492.841)"/><g transform="translate(99.997 9.296)"><path class="a" d="M1372.138,510.467l11.666,2.265-3.869-11.236Z" transform="translate(-1372.138 -501.497)"/></g></g><g transform="translate(192.779 0.011)"><path class="a" d="M863.975,622.8v-1.074a63.843,63.843,0,1,0-7.635-.451l-.128,1.065a65.021,65.021,0,1,1,7.763.46Z" transform="translate(-799 -492.851)"/><g transform="translate(55.35 122.53)"><path class="a" d="M851.411,606.941l10.363,6.993-11.237,5.48Z" transform="translate(-850.537 -606.941)"/></g></g><g transform="translate(63.981 367.032)"><path class="a" d="M1223.976,622.8v-1.074a63.842,63.842,0,1,0-7.635-.451l-.129,1.065a65.022,65.022,0,1,1,7.764.46Z" transform="translate(-1159 -492.851)"/><g transform="translate(55.35 122.53)"><path class="a" d="M1211.411,606.941l10.363,6.993-11.236,5.48Z" transform="translate(-1210.537 -606.941)"/></g></g><g transform="translate(0 64.986)"><path class="b" d="M619.5,617.8v-1.074a63.891,63.891,0,0,0,63.451-56.268l1.066.128A64.965,64.965,0,0,1,619.5,617.8Z" transform="translate(-619.5 -552.825)"/><g transform="translate(58.449)"><path class="c" d="M673.922,562.228l5.99-8.877,4.694,9.625Z" transform="translate(-673.922 -553.351)"/></g></g><g transform="translate(103.334 37.936)"><path class="d" d="M737.512,559.361a11.024,11.024,0,0,1,6.1-5.615.581.581,0,0,0,.36-.521.569.569,0,0,0-.349-.544c-.91-.362-1.884-.752-2.922-1.132l-1.365-.52a1.428,1.428,0,0,1-.3-.7,6.043,6.043,0,0,1,.125-2.943,13.048,13.048,0,0,0,3.188-9.758c0-5.477-3.437-9.464-8.162-9.464s-8.162,3.984-8.162,9.441a13.015,13.015,0,0,0,3.165,9.734,5.789,5.789,0,0,1,.157,2.989,1.473,1.473,0,0,1-.292.7l-1.369.52c-5.318,2.041-9.162,3.51-10.333,5.932a21.526,21.526,0,0,0-1.637,8.037,1.1,1.1,0,0,0,1.076,1.133h19.15a.507.507,0,0,0,.41-.2.522.522,0,0,0,.129-.43A11.8,11.8,0,0,1,737.512,559.361Z" transform="translate(-715.717 -528.164)"/><path class="d" d="M764.846,558.336a7.7,7.7,0,0,0-5.627-4.3,7.419,7.419,0,0,0-6.645,2.219l-.664.68a.518.518,0,0,1-.732.034.351.351,0,0,1-.035-.034l-.652-.68a7.419,7.419,0,0,0-6.645-2.219,7.7,7.7,0,0,0-5.626,4.3,8.209,8.209,0,0,0,1.42,9.191l11.111,12.067a1.033,1.033,0,0,0,1.571,0l11.1-12.044A8.233,8.233,0,0,0,764.846,558.336Z" transform="translate(-714.112 -526.258)"/></g><g transform="translate(231.87 37.861)"><path class="d" d="M874.721,573.745a2.244,2.244,0,0,0-2.2,2.289H843.966a1.123,1.123,0,0,1-1.1-1.144v-.572a.561.561,0,0,0-.549-.572h-3.3a.561.561,0,0,0-.549.572h0v1.718a4.488,4.488,0,0,0,4.394,4.576h29.656a4.488,4.488,0,0,0,4.394-4.576,2.244,2.244,0,0,0-2.2-2.291Z" transform="translate(-835.171 -524.717)"/><path class="d" d="M842.546,539.535a.561.561,0,0,0,.549-.573h0v-5.147a1.122,1.122,0,0,1,1.1-1.145h28.557a1.123,1.123,0,0,1,1.1,1.141v3.37a2.2,2.2,0,1,0,4.394.169c0-.057,0-.113,0-.169V532.67a4.488,4.488,0,0,0-4.394-4.576H843.1a4.488,4.488,0,0,0-4.394,4.576v1.718a.561.561,0,0,1-.549.572h-.55a2.29,2.29,0,0,0,0,4.576Z" transform="translate(-835.398 -528.094)"/><path class="d" d="M842.546,550.3a.561.561,0,0,0,.549-.572h0v-8.009a.561.561,0,0,0-.549-.572h-3.295a.561.561,0,0,0-.549.572h0v3.437a.561.561,0,0,1-.549.572H837.6a2.29,2.29,0,0,0,0,4.576Z" transform="translate(-835.398 -527.128)"/><path class="d" d="M842.546,561.183a.561.561,0,0,0,.549-.572h0V552.6a.561.561,0,0,0-.549-.572h-3.295a.561.561,0,0,0-.549.572h0v3.437a.561.561,0,0,1-.549.572H837.6a2.29,2.29,0,0,0,0,4.576Z" transform="translate(-835.398 -526.323)"/><path class="d" d="M842.546,572.063a.561.561,0,0,0,.549-.572h0v-8.009a.561.561,0,0,0-.549-.572h-3.295a.561.561,0,0,0-.549.572h0v4h-1.1a2.29,2.29,0,0,0,0,4.576Z" transform="translate(-835.398 -525.518)"/><path class="d" d="M856.635,542.869a2.529,2.529,0,0,1-1.161,1.534,2.362,2.362,0,0,1-1.861.222,1.6,1.6,0,0,0-1.622.4,1.764,1.764,0,0,0-.458,1.669,1.684,1.684,0,0,0,1.175,1.232,5.537,5.537,0,0,0,4.366-.522,5.944,5.944,0,0,0,2.732-3.585,7.1,7.1,0,0,0-4.64-8.711,8.021,8.021,0,0,0-9.9,5.543c-.019.07-.039.139-.056.208a10.119,10.119,0,0,0,6.623,12.415,1.589,1.589,0,0,0,.454.067,1.672,1.672,0,0,0,1.618-1.485,1.718,1.718,0,0,0-1.181-1.882,6.666,6.666,0,0,1-4.349-8.176,4.913,4.913,0,0,1,2.255-2.966,4.582,4.582,0,0,1,3.612-.43A3.641,3.641,0,0,1,856.635,542.869Z" transform="translate(-834.701 -527.597)"/><path class="d" d="M855.615,564.829a.538.538,0,0,0-.48-.15.555.555,0,0,0-.4.322L852.114,571a1.182,1.182,0,0,0,.223,1.28,1.067,1.067,0,0,0,1.231.233l5.758-2.726a.57.57,0,0,0,.315-.419.586.586,0,0,0-.153-.508Z" transform="translate(-834.169 -525.388)"/><path class="e" d="M885.882,571.68a1.553,1.553,0,0,0-.765.174c-4.741,2.586-7.9,2.421-10.239-.52a1.62,1.62,0,0,0-1.267-.623H867.46a2.4,2.4,0,0,1-2.093-1.259,2.608,2.608,0,0,1,0-2.517,2.4,2.4,0,0,1,2.093-1.259h6.154a4.617,4.617,0,0,0,4.242-2.967,4.952,4.952,0,0,0-.987-5.223l-.13-.135a.587.587,0,0,1,0-.808l2.578-2.685a.537.537,0,0,1,.759-.018l.018.018,4.648,4.841a1.612,1.612,0,0,0,1.611.493,1.683,1.683,0,0,0,1.189-1.238,1.763,1.763,0,0,0-.474-1.681l-5.035-5.252a.587.587,0,0,1,0-.808l3.98-4.153a3.534,3.534,0,0,0,0-4.855l-1.542-1.612a3.2,3.2,0,0,0-4.527-.132c-.045.043-.089.087-.132.132l-4.965,5.155a.529.529,0,0,1-.582.13,13.174,13.174,0,0,0-11.569.859,14.213,14.213,0,0,0-6.766,9.816,1.775,1.775,0,0,0,.259,1.289,1.641,1.641,0,0,0,1.059.718,1.476,1.476,0,0,0,.307.032,1.664,1.664,0,0,0,1.611-1.4,10.559,10.559,0,0,1,10.259-8.827,9.525,9.525,0,0,1,1.553.133.555.555,0,0,1,.436.389.589.589,0,0,1-.135.581L856.5,563.865a.329.329,0,0,0,0,.458l5.564,5.8a5.75,5.75,0,0,0,5.377,4.015h5.42a8.486,8.486,0,0,0,6.478,2.949,15.585,15.585,0,0,0,7.3-2.2,1.725,1.725,0,0,0,.844-1.921A1.645,1.645,0,0,0,885.882,571.68ZM873.631,559.2a.537.537,0,0,0-.389.168l-1.817,1.892a.591.591,0,0,0-.119.624.551.551,0,0,0,.508.353h1.8a1.32,1.32,0,0,0,1.2-.847,1.414,1.414,0,0,0-.272-1.482l-.519-.537A.535.535,0,0,0,873.631,559.2Z" transform="translate(-833.882 -527.318)"/></g><g transform="translate(63.567 183.237)"><g transform="translate(0)"><path class="a" d="M983.976,622.951a64.976,64.976,0,1,1,64.976-64.976A65.05,65.05,0,0,1,983.976,622.951Zm0-128.877a63.9,63.9,0,1,0,63.9,63.9A63.973,63.973,0,0,0,983.976,494.074Z" transform="translate(-914.182 -493)"/><g transform="translate(0 57.269)"><path class="a" d="M925.224,555.6l-5.355-9.274-5.355,9.274Z" transform="translate(-914.514 -546.324)"/></g></g></g><g transform="translate(106.075 220.927)"><g transform="translate(0)"><path class="e" d="M1004.437,550.468a3.357,3.357,0,0,1,3.356,3.356v2.237a3.357,3.357,0,0,1-3.356,3.356h-3.719a.556.556,0,0,0-.546.421,29.092,29.092,0,0,1-1.47,4.451.561.561,0,0,0,.114.626l2.685,2.685a3.355,3.355,0,0,1,0,4.744l0,0-3.166,3.166a3.356,3.356,0,0,1-4.746,0l-2.088-2.09a.56.56,0,0,0-.792.014.569.569,0,0,0-.1.149,4.475,4.475,0,0,1-4.07,2.613h-1.677a.557.557,0,0,0-.56.555v1.683a3.356,3.356,0,1,1-6.712,0v-1.677a.557.557,0,0,0-.555-.56h-1.682a4.476,4.476,0,0,1-4.072-2.62.56.56,0,0,0-.745-.266.572.572,0,0,0-.149.1l-2.09,2.09a3.356,3.356,0,0,1-4.746,0l-3.168-3.164a3.355,3.355,0,0,1,0-4.744l0,0,2.685-2.685a.557.557,0,0,0,.114-.624,29.552,29.552,0,0,1-1.47-4.448.556.556,0,0,0-.537-.419h-3.716a3.358,3.358,0,0,1-3.361-3.354v-2.241a3.358,3.358,0,0,1,3.356-3.356h3.716a.559.559,0,0,0,.537-.419,29.4,29.4,0,0,1,1.472-4.455.557.557,0,0,0-.114-.624l-2.685-2.685a3.355,3.355,0,0,1,0-4.744l0,0,3.168-3.163a3.356,3.356,0,0,1,4.746,0l2.685,2.685a.553.553,0,0,0,.624.114,28.941,28.941,0,0,1,4.451-1.468.559.559,0,0,0,.419-.537v-3.72a3.358,3.358,0,0,1,3.355-3.356h2.237a3.357,3.357,0,0,1,3.356,3.356v3.716a.559.559,0,0,0,.419.537,28.729,28.729,0,0,1,4.451,1.472.559.559,0,0,0,.624-.116l2.685-2.685a3.356,3.356,0,0,1,4.746,0l3.164,3.168a3.355,3.355,0,0,1,0,4.744l0,0-2.685,2.685a.557.557,0,0,0-.114.624,29.064,29.064,0,0,1,1.47,4.451.555.555,0,0,0,.537.421Zm-17.9,20.137v-4.79a1.1,1.1,0,0,1,.687-1.027,11.17,11.17,0,0,0,7.144-10.781,13.46,13.46,0,0,0-26.849,0,11.17,11.17,0,0,0,7.144,10.775,1.1,1.1,0,0,1,.687,1.031v4.79a1.12,1.12,0,0,0,1.119,1.119h8.949A1.119,1.119,0,0,0,986.537,570.605Z" transform="translate(-954.094 -528.094)"/></g></g><g transform="translate(239.247 221.275)"><path class="d" d="M1103.366,570.292a.567.567,0,0,0-.954.289l-1.419,7.1a1.131,1.131,0,0,0,.884,1.333,1.117,1.117,0,0,0,.223.023,1.054,1.054,0,0,0,.226-.023l7.1-1.421a.565.565,0,0,0,.287-.954Z" transform="translate(-1076.401 -525.332)"/><path class="d" d="M1128.081,552.8a5.921,5.921,0,0,0-8.359,0l-14.686,14.686a1.13,1.13,0,0,0,0,1.6l6.778,6.778a1.13,1.13,0,0,0,1.6,0l14.686-14.686a5.923,5.923,0,0,0-.015-8.376h0Z" transform="translate(-1076.124 -526.742)"/><path class="d" d="M1085.456,536.911a1.13,1.13,0,0,1,1.13-1.13h23.722a1.13,1.13,0,0,1,1.13,1.13h0v7.908a1.13,1.13,0,0,1-1.13,1.13h-23.722a1.13,1.13,0,0,1-1.13-1.13h0Z" transform="translate(-1077.548 -527.873)"/><path class="d" d="M1095.9,548.131h-9.315a1.13,1.13,0,0,0-1.13,1.13v13.556a1.13,1.13,0,0,0,1.13,1.13h13.187a1.13,1.13,0,0,0,1.13-1.13,1.113,1.113,0,0,0-.043-.309l-3.873-13.556A1.131,1.131,0,0,0,1095.9,548.131Z" transform="translate(-1077.548 -526.96)"/><path class="d" d="M1104.343,563.945a1.3,1.3,0,0,0,.917-.377l4.221-4.223a2.255,2.255,0,0,0,.662-1.6v-8.484a1.13,1.13,0,0,0-1.13-1.13h-8.669a1.129,1.129,0,0,0-1.131,1.127,1.151,1.151,0,0,0,.044.315l3.84,13.433A1.288,1.288,0,0,0,1104.343,563.945Z" transform="translate(-1076.531 -526.96)"/><path class="d" d="M1101.989,569.084h-18.248a1.13,1.13,0,0,1-1.13-1.13h0V534.066a1.13,1.13,0,0,1,1.13-1.13h30.5a1.13,1.13,0,0,1,1.13,1.13h0v21.615a.565.565,0,0,0,.967.4l2.89-2.89a2.254,2.254,0,0,0,.661-1.6V532.936a4.519,4.519,0,0,0-4.518-4.518h-32.759a4.519,4.519,0,0,0-4.519,4.517h0v36.148a4.519,4.519,0,0,0,4.518,4.518h17.511a1.129,1.129,0,0,0,1.107-.9l.107-.544a4.545,4.545,0,0,1,1.074-2.131.568.568,0,0,0-.429-.94Z" transform="translate(-1078.093 -528.418)"/></g><g transform="translate(102.376 405.561)"><g transform="translate(0)"><path class="e" d="M1235.375,574.468V555.583a1.682,1.682,0,0,1,1.68-1.684h6.711a1.679,1.679,0,0,1,1.677,1.682v18.842a7.254,7.254,0,0,1-2.289,5.21,3.853,3.853,0,0,1-2.719,1.122h-.021a4.064,4.064,0,0,1-2.836-1.19A7.107,7.107,0,0,1,1235.375,574.468Zm3.93-17.2a.559.559,0,0,0-.562.555V565.1a.559.559,0,0,0,.555.562h2.252a.559.559,0,0,0,.562-.555V557.83a.558.558,0,0,0-.555-.562H1239.3Z" transform="translate(-1191.745 -526.864)"/><path class="e" d="M1213.372,579.231a2.792,2.792,0,0,1-.052-2.762l.006-.023,5.188-10.173a.485.485,0,0,0,.063-.247v-7.253a2.8,2.8,0,0,1,2.792-2.785h4.469a2.8,2.8,0,0,1,2.8,2.785v7.275a.485.485,0,0,0,.06.247l5.2,10.194a2.792,2.792,0,0,1-2.47,4.109h-15.658A2.783,2.783,0,0,1,1213.372,579.231Zm8.125-11.452-.694,1.37a.57.57,0,0,0,.02.562.592.592,0,0,0,.48.27h4.6a.571.571,0,0,0,.564-.577.564.564,0,0,0-.063-.255l-.752-1.482-.024-.045a2.6,2.6,0,0,1-.337-1.325v-6.4a.574.574,0,0,0-.562-.562h-2.234a.574.574,0,0,0-.562.562v6.4a2.812,2.812,0,0,1-.406,1.46Z" transform="translate(-1193.401 -526.709)"/><path class="e" d="M1201.461,568.067a6.718,6.718,0,0,1-6.711-6.715V535.439a6.722,6.722,0,0,1,6.711-6.713h35.8a6.719,6.719,0,0,1,6.711,6.714v14.735a2.246,2.246,0,0,1-4.475.38,2.221,2.221,0,0,1,0-.38v-9.507a.559.559,0,0,0-.557-.562h-39.163a.562.562,0,0,0-.562.562h0v20.686a2.25,2.25,0,0,0,2.246,2.246h13.425a2.243,2.243,0,0,1,0,4.469Zm14.546-33.186a1.68,1.68,0,1,0-1.68,1.68,1.679,1.679,0,0,0,1.68-1.68h0Zm-7.273-1.68a1.68,1.68,0,1,1-1.188.492,1.678,1.678,0,0,1,1.188-.492Zm-3.914,1.68a1.68,1.68,0,1,0-1.68,1.68,1.679,1.679,0,0,0,1.68-1.68Z" transform="translate(-1194.75 -528.726)"/><path class="d" d="M1218.428,552.552a1.123,1.123,0,0,0-.967-1.107l-.591-.083a3.369,3.369,0,0,1-2.839-2.849l-.085-.593a1.122,1.122,0,0,0-2.217,0l-.085.6a3.37,3.37,0,0,1-2.845,2.847l-.59.083a1.122,1.122,0,0,0,0,2.217l.593.085a3.376,3.376,0,0,1,2.847,2.843l.085.607a1.122,1.122,0,0,0,2.217,0l.085-.607a3.379,3.379,0,0,1,2.847-2.843l.591-.085A1.125,1.125,0,0,0,1218.428,552.552Z" transform="translate(-1193.824 -527.376)"/><path class="d" d="M1234.408,547.7a1.121,1.121,0,0,0-.959-1.109l-.6-.086a3.365,3.365,0,0,1-2.845-2.843l-.08-.593a1.118,1.118,0,0,0-2.215,0l-.085.595a3.368,3.368,0,0,1-2.846,2.848l-.593.086a1.122,1.122,0,0,0,0,2.215l.591.085a3.368,3.368,0,0,1,2.849,2.849l.085.593a1.118,1.118,0,0,0,2.215,0l.08-.589a3.37,3.37,0,0,1,2.847-2.851l.595-.086A1.122,1.122,0,0,0,1234.408,547.7Z" transform="translate(-1192.642 -527.737)"/></g></g><path class="f" d="M1463.975,617.939l-8.877-5.991-.334,4.777a63.88,63.88,0,0,1-54.69-63.225H1399a64.956,64.956,0,0,0,55.689,64.3l-.339,4.834Z" transform="translate(-1077.264 -121.332)"/><g transform="translate(231.28 404.465)"><path class="d" d="M1340,558.737a3.867,3.867,0,0,0-3.988,3.742c0,.09,0,.18,0,.271a13.239,13.239,0,0,0,3.544,6.817.58.58,0,0,0,.438.2.586.586,0,0,0,.438-.2,13.245,13.245,0,0,0,3.544-6.819,3.866,3.866,0,0,0-3.716-4.011c-.09,0-.181,0-.271,0Z" transform="translate(-1313.205 -525.41)"/><path class="e" d="M1343.753,558.952h-6.868l-3.335,2.122a1.159,1.159,0,0,1-1.781-.944l-.092-3.246a4.64,4.64,0,0,1,2.973-4.465l.274-.107a.582.582,0,0,0,.358-.668l-2.32-10.465a7.173,7.173,0,0,1,2.482-6.139c.49-.392,1.417-1.074,2.344-1.737a.58.58,0,0,0,.232-.464v-2.764a2.32,2.32,0,0,1,4.638-.1q0,.05,0,.1v2.769a.58.58,0,0,0,.232.464c.92.66,1.85,1.345,2.345,1.737a7.165,7.165,0,0,1,2.452,6.132l-2.32,10.469a.579.579,0,0,0,.36.666l.264.107a4.637,4.637,0,0,1,2.976,4.465l-.1,3.246a1.159,1.159,0,0,1-1.782.944Zm-6.074-17.944a2.634,2.634,0,1,0,0-.005Z" transform="translate(-1313.525 -527.706)"/><path class="d" d="M1326.14,542.43a4.555,4.555,0,0,0-4.572,4.54v21.577a.566.566,0,0,1-.13.361l-6.429,7.772a2.591,2.591,0,0,0,.208,2.523,2.628,2.628,0,0,0,2.266,1.159h48.164a2.629,2.629,0,0,0,2.266-1.159,2.591,2.591,0,0,0,.208-2.523l-6.43-7.767a.567.567,0,0,1-.13-.361V546.976a4.555,4.555,0,0,0-4.57-4.542h-3.428a2.271,2.271,0,0,0-.1,4.542c.033,0,.066,0,.1,0h2.855a.569.569,0,0,1,.571.567h0V567.53a.569.569,0,0,1-.57.568h-8.136a.569.569,0,0,0-.512.322,22.694,22.694,0,0,1-3.729,5.224,3.442,3.442,0,0,1-4.868.09c-.031-.03-.061-.06-.09-.09a22.693,22.693,0,0,1-3.729-5.224.57.57,0,0,0-.512-.322h-8.13a.569.569,0,0,1-.571-.567h0V547.544a.569.569,0,0,1,.57-.568h2.858a2.271,2.271,0,0,0,.1-4.542c-.033,0-.065,0-.1,0Z" transform="translate(-1314.775 -526.616)"/></g><text class="g" transform="translate(124.39 155.728)"><tspan x="-41.408" y="0">EMPATHIZE</tspan></text><text class="h" transform="translate(253.902 154.888)"><tspan x="-24.922" y="0">DEFINE</tspan></text><text class="h" transform="translate(128.952 337.255)"><tspan x="-24.052" y="0">IDEATE</tspan></text><text class="g" transform="translate(258.043 338.954)"><tspan x="-43.344" y="0">PROTOTYPE</tspan></text><text class="g" transform="translate(125.084 522.909)"><tspan x="-18.104" y="0">TEST</tspan></text><text class="g" transform="translate(253.64 522.909)"><tspan x="-43.248" y="0">IMPLEMENT</tspan></text><g transform="translate(197.293 183.066)"><g transform="translate(0)"><path class="a" d="M1103.973,622.773A64.965,64.965,0,1,1,1144.1,506.718l-.665.844a63.949,63.949,0,1,0,5.719,5.08l.759-.759a64.946,64.946,0,0,1-45.945,110.89Z" transform="translate(-1039.029 -492.841)"/><g transform="translate(99.997 9.296)"><path class="a" d="M1132.138,510.467l11.666,2.265-3.87-11.236Z" transform="translate(-1132.138 -501.497)"/></g></g></g></g></svg>